<?xml version="1.0" standalone="no"?>
<!DOCTYPE svg PUBLIC "-//W3C//DTD SVG 20010904//EN"
 "http://www.w3.org/TR/2001/REC-SVG-20010904/DTD/svg10.dtd">
<svg version="1.0" xmlns="http://www.w3.org/2000/svg"
 width="60.000000pt" height="63.000000pt" viewBox="0 0 60.000000 63.000000"
 preserveAspectRatio="xMidYMid meet">

<g transform="translate(0.000000,63.000000) scale(0.100000,-0.100000)"
fill="#000000" stroke="none">
<path d="M274 559 c-3 -6 0 -15 7 -20 11 -7 10 -9 -3 -9 -10 0 -18 7 -18 15 0
8 -7 15 -15 15 -8 0 -15 -9 -15 -20 0 -13 -5 -18 -15 -14 -8 4 -12 11 -9 16 4
6 1 9 -7 6 -18 -6 -18 -34 -1 -30 8 1 11 -2 6 -9 -5 -9 -2 -10 12 -5 10 5 36
10 57 13 22 3 37 11 37 19 0 8 -6 14 -12 14 -9 0 -8 4 2 10 13 8 13 10 -2 10
-9 0 -20 -5 -24 -11z"/>
<path d="M327 553 c-13 -13 -7 -33 11 -33 13 0 14 2 3 9 -11 7 -10 11 5 20 15
8 16 10 3 11 -9 0 -19 -3 -22 -7z"/>
<path d="M366 544 c-10 -25 -7 -34 9 -28 8 4 15 1 15 -6 0 -6 5 -8 10 -5 6 3
10 16 10 27 0 12 -3 18 -7 15 -3 -4 -12 -2 -18 3 -9 8 -14 6 -19 -6z"/>
<path d="M142 508 c-8 -8 -9 -15 -1 -25 13 -15 33 -18 24 -3 -3 6 1 7 9 4 19
-7 21 7 4 24 -15 15 -21 15 -36 0z"/>
<path d="M442 500 c-18 -29 8 -56 38 -40 23 12 27 25 6 17 -9 -4 -18 3 -23 19
-8 24 -8 24 -21 4z"/>
<path d="M100 461 c0 -6 5 -13 10 -16 18 -11 10 -23 -12 -17 -13 3 -19 1 -15
-6 4 -5 1 -13 -5 -15 -10 -4 -9 -8 2 -16 19 -14 33 -14 25 -1 -3 6 -3 10 2 10
11 0 43 57 35 64 -9 10 -42 7 -42 -3z"/>
<path d="M486 445 c-22 -17 -13 -35 14 -28 22 6 24 11 12 30 -5 8 -12 8 -26
-2z"/>
<path d="M279 450 c-6 -44 -6 -60 2 -60 5 0 9 5 9 12 0 9 3 9 12 0 20 -20 28
-14 28 19 0 25 -3 29 -13 20 -10 -8 -17 -7 -25 1 -7 7 -12 10 -13 8z"/>
<path d="M195 429 c3 -8 26 -32 50 -53 25 -20 45 -42 45 -49 0 -6 -26 -39 -57
-72 l-58 -60 60 58 c33 31 65 57 70 57 5 0 34 -24 65 -52 l55 -53 -57 60 -58
60 55 58 55 57 -57 -55 -58 -55 -58 58 c-32 31 -55 50 -52 41z"/>
<path d="M497 380 c4 -16 9 -18 24 -9 26 14 24 29 -5 29 -19 0 -23 -4 -19 -20z"/>
<path d="M60 355 c0 -8 2 -15 4 -15 2 0 11 -3 19 -6 9 -3 16 3 20 15 4 17 0
21 -19 21 -15 0 -24 -6 -24 -15z"/>
<path d="M191 330 c-10 -29 -9 -30 20 -30 33 0 33 -1 19 34 -13 34 -26 33 -39
-4z"/>
<path d="M380 318 c0 -28 1 -29 18 -12 16 16 17 16 20 1 6 -28 22 -19 22 12 0
26 -3 30 -30 29 -26 -1 -30 -5 -30 -30z"/>
<path d="M497 329 c-5 -17 -1 -20 21 -17 36 4 44 38 9 38 -16 0 -26 -7 -30
-21z"/>
<path d="M70 279 c0 -5 5 -7 10 -4 6 3 10 8 10 11 0 2 -4 4 -10 4 -5 0 -10 -5
-10 -11z"/>
<path d="M274 238 c3 -13 6 -26 6 -29 0 -3 13 -6 29 -6 21 0 31 6 35 21 8 30
7 36 -4 36 -5 0 -10 -6 -10 -13 0 -7 -9 -13 -20 -13 -11 0 -20 6 -20 13 0 7
-5 13 -11 13 -7 0 -9 -9 -5 -22z"/>
<path d="M94 236 c-15 -12 -17 -17 -6 -27 10 -11 15 -10 27 1 22 22 4 44 -21
26z"/>
<path d="M474 225 c-4 -11 -13 -24 -21 -28 -7 -4 -13 -15 -13 -23 0 -8 -4 -12
-10 -9 -13 8 -13 -6 1 -25 8 -11 12 -12 16 -2 2 6 9 10 14 6 12 -7 12 19 -1
34 -7 9 -7 9 2 2 19 -16 32 -12 17 6 -11 14 -10 16 11 12 15 -2 25 2 25 10 0
6 -4 12 -9 11 -5 0 -12 5 -17 12 -6 10 -10 9 -15 -6z"/>
<path d="M118 196 c-11 -8 -14 -17 -8 -27 8 -12 12 -11 27 3 22 22 6 43 -19
24z"/>
<path d="M148 163 c-15 -4 -26 -23 -14 -23 2 0 13 -3 23 -7 10 -3 15 -3 11 2
-4 4 -3 14 3 22 12 13 8 14 -23 6z"/>
<path d="M184 135 c3 -8 0 -15 -7 -15 -8 0 -7 -4 3 -9 18 -12 33 -3 26 16 -3
8 -1 11 4 8 6 -3 10 -1 10 4 0 6 -9 11 -21 11 -15 0 -19 -5 -15 -15z"/>
<path d="M380 141 c0 -6 7 -11 16 -11 14 0 15 -2 3 -17 -12 -14 -12 -16 1 -11
21 7 19 42 -2 46 -10 2 -18 -1 -18 -7z"/>
<path d="M226 124 c-10 -25 -7 -34 9 -34 8 0 15 2 15 4 0 2 3 11 6 19 3 8 -1
17 -10 20 -8 3 -17 -1 -20 -9z"/>
<path d="M351 130 c-11 -6 -12 -14 -5 -29 12 -28 38 -12 27 17 -6 15 -12 19
-22 12z"/>
<path d="M274 105 c-10 -20 -9 -23 7 -22 20 1 24 14 11 34 -5 8 -11 4 -18 -12z"/>
</g>
</svg>
